# xmcd CD database file
#
# Track frame offsets:
#	150
#	23080
#	42415
#	74615
#	96885
#	117762
#	125632
#	143610
#	156190
#
# Disc length: 2592 seconds
#
# Revision: 1
# Processed by: cddbd v1.4PL0 Copyright (c) Steve Scherf et al.
# Submitted via: CDex 1.40Beta5
#
DISCID=7a0a1e09
DTITLE=Stivin Jiri - Zodiac
DYEAR=1977
DGENRE=Blues
TTITLE0=Ohen
TTITLE1=Voda
TTITLE2=Vzduch
TTITLE3=Zeme
TTITLE4=Flegmatici
TTITLE5=Sangvinici
TTITLE6=Melancholici
TTITLE7=Cholerici
TTITLE8=Zverokruh
EXTD=YEAR: 1977 ID3G:   0
EXTT0=
EXTT1=
EXTT2=
EXTT3=
EXTT4=
EXTT5=
EXTT6=
EXTT7=
EXTT8=
PLAYORDER=
